<svg width="982" height="556" viewBox="0 0 982 556" fill="none" xmlns="http://www.w3.org/2000/svg">
<path d="M520.04 94.3402C207.4 -99.2691 1 47 1 195C1 374.209 98.6985 464.358 153.548 492.359C520.04 647 741.931 485.007 856.615 345C909.343 345 901 367.645 901 397C917 447 945.122 426.356 955.718 414.356C1023.03 318.351 940.136 278.349 890.273 270.349C1015.93 207.946 917 83 856.615 94.3402C806.129 94.3402 781 121 806.129 144.343C879 169 857.862 221.013 839.787 250.348C751.529 363.953 623 158.1 520.04 94.3402Z" stroke="black"/>
</svg>
